<svg width="1001" height="1000" viewBox="0 0 1001 1000" fill="none" xmlns="http://www.w3.org/2000/svg">
<ellipse cx="500.5" cy="500" rx="500.5" ry="500" fill="url(#paint0_linear_2_26)"/>
<path d="M446.292 426.134V473.595H277.981V426.134H446.292ZM294.461 294.078V614H234.036V294.078H294.461ZM491.116 294.078V614H430.691V294.078H491.116ZM719.821 530.943C719.821 524.791 718.869 519.298 716.965 514.464C715.207 509.483 711.911 505.016 707.077 501.061C702.39 496.959 695.725 493.004 687.082 489.195C678.586 485.24 667.6 481.139 654.123 476.891C639.182 472.203 625.266 466.93 612.375 461.07C599.484 455.211 588.132 448.399 578.317 440.636C568.649 432.872 561.105 423.937 555.686 413.829C550.266 403.575 547.556 391.71 547.556 378.233C547.556 365.05 550.339 353.038 555.905 342.198C561.618 331.358 569.675 322.057 580.075 314.293C590.476 306.383 602.707 300.304 616.77 296.056C630.979 291.808 646.652 289.684 663.791 289.684C687.521 289.684 708.029 294.005 725.314 302.647C742.746 311.29 756.223 323.009 765.744 337.804C775.266 352.599 780.026 369.225 780.026 387.682H719.821C719.821 377.721 717.697 368.932 713.449 361.314C709.348 353.697 703.049 347.691 694.553 343.297C686.203 338.902 675.656 336.705 662.912 336.705C650.607 336.705 640.354 338.536 632.15 342.198C624.094 345.86 618.015 350.841 613.913 357.14C609.958 363.438 607.98 370.47 607.98 378.233C607.98 384.093 609.372 389.366 612.155 394.054C614.938 398.595 619.113 402.916 624.68 407.018C630.246 410.973 637.131 414.708 645.334 418.224C653.684 421.593 663.352 424.962 674.338 428.331C691.916 433.604 707.297 439.464 720.48 445.909C733.811 452.354 744.87 459.679 753.659 467.882C762.595 476.085 769.26 485.313 773.654 495.567C778.195 505.821 780.466 517.467 780.466 530.504C780.466 544.273 777.756 556.578 772.336 567.418C766.916 578.258 759.152 587.486 749.045 595.104C738.938 602.721 726.779 608.507 712.57 612.462C698.508 616.417 682.761 618.395 665.329 618.395C649.802 618.395 634.421 616.344 619.187 612.242C604.099 607.994 590.402 601.695 578.098 593.346C565.793 584.85 555.979 574.156 548.654 561.266C541.33 548.229 537.668 532.994 537.668 515.562H598.312C598.312 525.67 599.924 534.312 603.146 541.49C606.516 548.521 611.203 554.308 617.209 558.849C623.361 563.243 630.539 566.466 638.742 568.517C646.945 570.567 655.808 571.593 665.329 571.593C677.634 571.593 687.741 569.908 695.651 566.539C703.708 563.023 709.714 558.189 713.669 552.037C717.771 545.885 719.821 538.854 719.821 530.943Z" fill="white"/>
<path d="M21 631.875C21 632.625 21 633.375 21 634.125C37 634.375 53 634.6 69 634.8C133 635.6 197 636 261 636C485 636 709 635.456 933 634.367C949 634.289 965 634.208 981 634.125C981 633.375 981 632.625 981 631.875C965 631.792 949 631.711 933 631.633C709 630.544 485 630 261 630C197 630 133 630.4 69 631.2C53 631.4 37 631.625 21 631.875Z" fill="white"/>
<defs>
<linearGradient id="paint0_linear_2_26" x1="500.5" y1="0" x2="500.5" y2="1000" gradientUnits="userSpaceOnUse">
<stop offset="0.277" stop-color="#D4580B"/>
<stop offset="0.49" stop-color="#823851"/>
<stop offset="0.709" stop-color="#301997"/>
</linearGradient>
</defs>
</svg>
